<?xml version="1.0" encoding="UTF-8"?>
<!-- Generator: Adobe Illustrator 25.2.3, SVG Export Plug-In . SVG Version: 6.00 Build 0)  -->
<svg version="1.1" id="Layer_1" xmlns="http://www.w3.org/2000/svg" xmlns:xlink="http://www.w3.org/1999/xlink" x="0px" y="0px" viewBox="0 0 39.6 27.8" style="enable-background:new 0 0 39.6 27.8;" xml:space="preserve">
<style type="text/css">
	.st0{fill:#002F4F;}
	.st1{fill:#FFDB00;}
</style>
<g id="Layer_2_1_">
	<g id="Layer_1-2">
		<path class="st0" d="M19.8,0.2C12.7,0.2,7,2.9,7,6.3s5.7,6.2,12.8,6.2s12.9-2.8,12.9-6.2S26.9,0.2,19.8,0.2z M19.8,8.1    c-2,0-3.7-0.8-3.7-1.8s1.6-1.8,3.7-1.8s3.7,0.8,3.7,1.8S21.9,8.1,19.8,8.1z"/>
		<path class="st1" d="M9,18.9v0.4c2.1,1.9,6.1,3.3,10.8,3.3s8.8-1.3,10.8-3.3v-0.4c-2.3,1.7-6.3,2.9-10.8,2.9S11.3,20.7,9,18.9z"/>
		<path class="st1" d="M9,16.9v0.4c2.1,1.9,6.1,3.3,10.8,3.3s8.8-1.4,10.8-3.3v-0.4c-2.3,1.7-6.3,2.9-10.8,2.9S11.3,18.6,9,16.9z"/>
		<path class="st1" d="M9,21v0.4c2.1,1.9,6.1,3.3,10.8,3.3s8.8-1.3,10.8-3.3V21c-2.3,1.7-6.3,2.9-10.8,2.9S11.3,22.7,9,21z"/>
		<path class="st1" d="M9,12.9v0.4c2.1,1.9,6.1,3.3,10.8,3.3s8.8-1.3,10.8-3.3v-0.4c-2.3,1.7-6.3,2.9-10.8,2.9S11.3,14.6,9,12.9z"/>
		<path class="st1" d="M19.8,13.7c-4.6,0-8.6-1.1-10.8-2.9v0.4c2.1,1.9,6.1,3.3,10.8,3.3s8.8-1.3,10.8-3.3v-0.4    C28.4,12.5,24.4,13.7,19.8,13.7z"/>
		<path class="st1" d="M9,14.9v0.4c2.1,1.9,6.1,3.3,10.8,3.3s8.8-1.3,10.8-3.3v-0.4c-2.3,1.7-6.3,2.9-10.8,2.9S11.3,16.6,9,14.9z"/>
		<path class="st0" d="M31.7,17.6v3.9c-1,1.2-2.2,2.1-3.6,2.7c-2.6,1.1-5.4,1.7-8.2,1.6c-2.8,0-5.6-0.5-8.2-1.6    c-1.5-0.6-2.8-1.6-3.7-2.9v-3.7c-0.8,0.8-1.3,1.9-1.4,3.1c0,3.9,5.9,7,13.3,7s13.3-3.1,13.3-7C33.1,19.5,32.6,18.4,31.7,17.6z"/>
	</g>
</g>
</svg>